<svg width="389" height="116" viewBox="0 0 389 116" fill="none" xmlns="http://www.w3.org/2000/svg">
  <rect width="389" height="116" rx="12" fill="white"/>
  <g transform="translate(12 9)">
    <circle cx="40" cy="40" r="39" fill="#325FA7"/>
    <circle cx="40" cy="40" r="34" fill="#F3F5F8"/>
    <path d="M16 32C27 14 49 5 67 10C62 18 55 25 47 31C36 28 26 29 16 32Z" fill="#F2BE2C"/>
    <path d="M24 17C34 11 48 9 59 13C53 19 46 24 38 28C33 25 28 21 24 17Z" fill="#325FA7"/>
    <path d="M14 49C14 44 15 39 17 34C29 31 40 31 50 36C44 42 37 48 30 54C24 53 19 51 14 49Z" fill="#F2BE2C"/>
    <path d="M19 61C24 57 29 56 35 56C42 62 47 70 49 79C39 79 29 76 21 71C20 68 19 64 19 61Z" fill="#325FA7"/>
    <path d="M31 79C39 82 48 83 57 81C61 73 63 64 62 55C56 60 50 66 45 73C40 75 36 77 31 79Z" fill="#F2BE2C"/>
    <path d="M50 38C58 31 65 24 70 16C75 22 78 29 79 37C72 43 64 47 55 50C54 45 52 41 50 38Z" fill="#325FA7"/>
    <path d="M53 55C62 52 71 48 79 42C78 54 72 66 63 74C57 70 52 64 53 55Z" fill="#F2BE2C"/>
    <path d="M58 84C51 88 42 91 33 90C39 94 47 96 55 95C64 94 71 91 77 86C70 84 64 83 58 84Z" fill="#325FA7"/>
    <circle cx="40" cy="40" r="39" stroke="#274D87" stroke-width="2"/>
  </g>
  <path d="M113.426 75V32.8182H123.289V66.857H140.96V75H113.426ZM145.64 75V43.3636H155.503V75H145.64ZM150.592 39.2756C149.128 39.2756 147.872 38.7898 146.824 37.8182C145.79 36.8329 145.273 35.6555 145.273 34.2862C145.273 32.9304 145.79 31.7668 146.824 30.7951C147.872 29.8099 149.128 29.3172 150.592 29.3172C152.056 29.3172 153.305 29.8099 154.34 30.7951C155.388 31.7668 155.912 32.9304 155.912 34.2862C155.912 35.6555 155.388 36.8329 154.34 37.8182C153.305 38.7898 152.056 39.2756 150.592 39.2756ZM176.207 75.6179C172.942 75.6179 170.131 74.9593 167.775 73.642C165.433 72.311 163.627 70.429 162.357 67.9961C161.087 65.5495 160.452 62.6555 160.452 59.3143C160.452 56.0553 161.087 53.1955 162.357 50.7351C163.641 48.2746 165.447 46.3582 167.775 44.9858C170.117 43.6134 172.867 42.9272 176.022 42.9272C178.141 42.9272 180.116 43.267 181.947 43.9467C183.792 44.6122 185.4 45.6179 186.773 46.9634C188.159 48.309 189.234 49.9986 189.998 52.0323C190.761 54.0524 191.143 56.4241 191.143 59.1474V61.8551H164.389V55.7472H181.853C181.853 54.3262 181.542 53.0639 180.921 51.9602C180.301 50.8565 179.44 49.9941 178.338 49.3729C177.248 48.738 175.978 48.4205 174.528 48.4205C173.018 48.4205 171.677 48.7738 170.505 49.4804C169.347 50.1732 168.437 51.1101 167.775 52.2912C167.112 53.4586 166.773 54.7635 166.755 56.2058V61.876C166.755 63.6345 167.078 65.1527 167.723 66.4302C168.382 67.7078 169.309 68.6929 170.505 69.3857C171.7 70.0786 173.12 70.4241 174.766 70.4241C175.855 70.4241 176.854 70.2725 177.761 69.9693C178.669 69.6661 179.447 69.2148 180.095 68.6151C180.744 68.0155 181.236 67.2812 181.572 66.4126L190.707 67.0213C190.25 69.1792 189.316 71.0611 187.906 72.6669C186.51 74.259 184.704 75.5007 182.487 76.392C180.281 77.2695 177.521 77.7083 174.207 77.7083L176.207 75.6179ZM210.878 75.6179C207.612 75.6179 204.801 74.9593 202.445 73.642C200.103 72.311 198.298 70.429 197.027 67.9961C195.757 65.5495 195.122 62.6555 195.122 59.3143C195.122 56.0553 195.757 53.1955 197.027 50.7351C198.311 48.2746 200.117 46.3582 202.445 44.9858C204.787 43.6134 207.537 42.9272 210.692 42.9272C212.811 42.9272 214.786 43.267 216.617 43.9467C218.462 44.6122 220.07 45.6179 221.443 46.9634C222.829 48.309 223.904 49.9986 224.668 52.0323C225.432 54.0524 225.814 56.4241 225.814 59.1474V61.8551H199.059V55.7472H216.524C216.524 54.3262 216.213 53.0639 215.592 51.9602C214.972 50.8565 214.111 49.9941 213.008 49.3729C211.919 48.738 210.649 48.4205 209.198 48.4205C207.688 48.4205 206.347 48.7738 205.175 49.4804C204.018 50.1732 203.108 51.1101 202.445 52.2912C201.782 53.4586 201.443 54.7635 201.425 56.2058V61.876C201.425 63.6345 201.748 65.1527 202.393 66.4302C203.052 67.7078 203.98 68.6929 205.175 69.3857C206.37 70.0786 207.791 70.4241 209.436 70.4241C210.525 70.4241 211.524 70.2725 212.431 69.9693C213.339 69.6661 214.117 69.2148 214.765 68.6151C215.414 68.0155 215.906 67.2812 216.242 66.4126L225.377 67.0213C224.92 69.1792 223.986 71.0611 222.576 72.6669C221.181 74.259 219.374 75.5007 217.157 76.392C214.951 77.2695 212.191 77.7083 208.878 77.7083L210.878 75.6179Z" fill="#2E6CC0"/>
  <path d="M109.615 74.6726C108.422 74.6726 107.37 74.4503 106.461 74.0057C105.552 73.5612 104.841 72.9441 104.327 72.1545C103.829 71.3483 103.58 70.4304 103.58 69.4006C103.58 68.5764 103.739 67.8491 104.056 67.2188C104.389 66.5885 104.841 66.0397 105.41 65.5724C105.978 65.1051 106.627 64.702 107.355 64.3631C108.099 64.0241 108.89 63.7336 109.728 63.4915C110.712 63.201 111.507 62.9347 112.113 62.6926C112.72 62.4344 113.164 62.1278 113.446 61.7726C113.728 61.4173 113.869 60.9744 113.869 60.4439V60.3471C113.869 59.3133 113.542 58.5137 112.889 57.9482C112.25 57.3828 111.341 57.1001 110.162 57.1001C108.918 57.1001 107.929 57.3747 107.196 57.9239C106.462 58.4564 105.975 59.0867 105.733 59.814L104.169 59.2326C104.556 58.2569 105.079 57.4795 105.739 56.9005C106.414 56.3214 107.174 55.9103 108.018 55.6679C108.873 55.4258 109.744 55.3048 110.631 55.3048C111.261 55.3048 111.97 55.3814 112.757 55.5345C113.55 55.6719 114.311 55.9546 115.04 56.3821C115.783 56.8097 116.4 57.4559 116.892 58.3206C117.383 59.1853 117.629 60.3392 117.629 61.7822V74.2859H113.99V71.5579H113.845C113.603 72.0572 113.239 72.5406 112.754 73.0079C112.269 73.4752 111.654 73.862 110.91 74.1686C110.167 74.4752 109.068 74.6726 109.615 74.6726Z" fill="#F2BE2C"/>
  <path d="M117.434 87.3281C116.862 87.3281 116.326 87.2797 115.827 87.1829C115.328 87.0862 114.974 86.9894 114.763 86.8927L115.634 83.8903C116.278 84.0515 116.847 84.1201 117.342 84.096C117.837 84.0718 118.272 83.8942 118.647 83.5635C119.038 83.2409 119.387 82.7185 119.692 81.9969L120.162 80.9057L113.422 55.5538H117.4L121.948 74.4389H122.142L126.692 55.5538H130.67L122.931 83.5474C122.583 84.5559 122.14 85.3893 121.601 86.0475C121.062 86.7056 120.422 87.189 119.68 87.4977C118.938 87.8145 118.19 87.9729 117.434 87.9729Z" fill="#F2BE2C"/>
</svg>